<svg id="Layer_1" data-name="Layer 1" xmlns="http://www.w3.org/2000/svg" viewBox="0 0 124.65 116.94"><defs><style>.cls-1{fill:#fff;}</style></defs><path class="cls-1" d="M96.49,59.06h-.08L95,59a31.88,31.88,0,0,0-8.86,1.26l-1,.51,0,0,.54-.52.14-.13.06,0,0,0a1.53,1.53,0,0,1,.13-.13l.07-.07.29-.29.11-.12.12-.12a37,37,0,0,0,5.87-8.48h0a31.74,31.74,0,1,0-51.11,8.93h0l.51.5a29.87,29.87,0,0,0-4.36-.93A31.08,31.08,0,0,0,33.19,59a31.59,31.59,0,0,0-18.51,6c-.17.12-.34.24-.5.37l-.51.39c-.14.1-.27.21-.4.32h0a31.74,31.74,0,0,0,39.6,49.6l.37-.3A31.69,31.69,0,0,0,63.89,98.79L64,99a31.73,31.73,0,0,0,30.63,23.43c.83,0,1.66,0,2.48-.1l.76-.07A31.73,31.73,0,0,0,96.5,59.06Zm19,44.21s-10,17.71-27.55,8.81c0,0-15.26-8-7.25-22.53,0,0,6.54-12.54,19.09-6,0,0,5.16,2.59,5.16,7.63a8.79,8.79,0,0,1-.77,3.47,6.24,6.24,0,0,1-5.26,3.1,8.4,8.4,0,0,1-3.7-.95s-4.13-2.29-3.12-6.38a.06.06,0,0,0-.06-.07c-.4,0-2.45.23-4.1,3.22-1.83,3.31-2,7.17,3.54,11.41,0,0,10.17,7.59,17.13-5.51,0,0,8.06-13.67-8.37-23.15,0,0-9.63-6.11-19.3,0l-1,.63a37.17,37.17,0,0,0-7,6l-.32.33,0,0-.18.15A11.71,11.71,0,0,1,67,86.07c-.51.1-1,.12-1.35.18s-.66.08-1,.1c-.51,0-1,.05-1.48.05a24.34,24.34,0,0,1-2.71-.15s2,10.49-11.57,20.64c0,0-18.25,15.31-34.75-1.94,0,0-12.72-15.89,2.09-28.85,0,0,13.15-11.16,23.61,1.67,0,0,9.2,10.74-1.54,20,0,0-6.31,5.59-11.94-.07,0,0-3.78-4.48,1.35-9.11,0,0,3.71-3,7.14-.48,0,0,1-2.12-1.43-5.06s-5.91-4.53-11.91-1c0,0-10.83,6.6-1.27,17.94,0,0,9.68,12.58,24.61.86,0,0,9.25-6.65,7.21-17.89,0,0-.38-2.33-1.27-5.76a16.4,16.4,0,0,1-.4-6.5,11.61,11.61,0,0,1,1.34-4.11h0a6.8,6.8,0,0,1,2.73-2.66l-.26-.17C52.28,62.51,40.84,54.48,41.47,39c0,0-.34-23.83,23.46-25.71,0,0,20.35.18,21,19.84,0,0,.34,17.25-16.21,17.25,0,0-14.14.35-14.49-13.8,0,0-.34-8.42,7.59-9.21,0,0,5.86-.1,6.21,6.8,0,0,0,4.78-4.14,5.84,0,0,1,2.09,4.83,2.09S77,40.37,78,33.47c0,0,1.72-12.57-13.11-12.32,0,0-15.87-.45-16.21,18.53,0,0-.69,11.38,9.31,16.9,0,0,.72.41,2,1.06a32.79,32.79,0,0,0,7.45,2.67,11.63,11.63,0,0,1,7.69,5.34c0,.09.09.17.14.26q.19.36.36.75h0a.21.21,0,0,0,0-.07c.06,0,0,0,0,.07s.25.52.31.62A2.61,2.61,0,0,1,76.31,69a3.33,3.33,0,0,0,0,.56h0c1.15-.65,14.2-7.65,28,.74,0,0,13.79,7.36,13.79,21.71a27.23,27.23,0,0,1-2.63,11.26Z" transform="translate(-1.67 -5.53)"/></svg>