<?xml version="1.0" standalone="no"?>
<!DOCTYPE svg PUBLIC "-//W3C//DTD SVG 20010904//EN"
 "http://www.w3.org/TR/2001/REC-SVG-20010904/DTD/svg10.dtd">
<svg version="1.0" xmlns="http://www.w3.org/2000/svg"
 width="32.000000pt" height="32.000000pt" viewBox="0 0 32.000000 32.000000"
 preserveAspectRatio="xMidYMid meet">

<g transform="translate(0.000000,32.000000) scale(0.100000,-0.100000)"
fill="#000000" stroke="none">
<path d="M0 160 l0 -160 160 0 160 0 0 160 0 160 -160 0 -160 0 0 -160z m210
105 c18 -19 22 -31 17 -60 -4 -25 -2 -35 7 -35 7 0 25 -9 40 -21 30 -24 34
-63 10 -97 -21 -30 -87 -31 -107 -2 l-14 20 -18 -20 c-41 -45 -125 -12 -125
49 0 30 38 71 66 71 9 0 11 10 7 35 -12 71 68 112 117 60z"/>
<path d="M127 252 c-20 -22 -22 -52 -4 -76 18 -24 9 -94 -13 -106 -31 -17 -71
14 -54 41 7 12 34 11 34 -1 0 -5 -5 -10 -12 -10 -9 0 -9 -3 -1 -11 15 -15 33
-3 33 21 0 23 -36 36 -55 20 -18 -15 -19 -52 -3 -68 26 -26 97 -2 98 34 0 5
16 17 36 27 37 18 66 12 77 -17 8 -21 -17 -50 -37 -43 -23 9 -20 30 4 22 14
-4 20 -2 20 8 0 22 -27 28 -45 11 -21 -21 -19 -31 10 -50 24 -16 27 -16 45 1
39 35 13 95 -42 95 -14 0 -39 7 -57 16 -27 14 -32 21 -29 48 2 26 8 32 31 34
22 3 27 -1 27 -17 0 -12 -4 -21 -10 -21 -5 0 -10 7 -10 16 0 9 -6 14 -12 12
-7 -3 -13 -13 -13 -24 0 -25 43 -26 59 -1 26 41 -43 76 -77 39z"/>
</g>
</svg>
