<?xml version="1.0" encoding="UTF-8"?>
<svg id="Layer_1" data-name="Layer 1" xmlns="http://www.w3.org/2000/svg" viewBox="0 0 993.92 1063.68">
  <defs>
    <style>
      .cls-1 {
        fill: #fff;
      }
    </style>
  </defs>
  <path class="cls-1" d="M738.82,388.07c-.2-.03-.43-.03-.63-.03-3.33-.15-6.65-.22-9.98-.22-21.81,0-43.44,3.1-64.22,9.13l-7.2,3.73,.33-.28,3.98-3.75,.98-.9,.43-.4s.08-.07,.2-.2c.2-.2,.55-.53,1-.98l.5-.5c.58-.58,1.28-1.28,2.08-2.1,.25-.28,.53-.55,.8-.85,.28-.28,.55-.58,.85-.9,9.03-9.65,27.61-31.41,42.59-61.45,0-.03,.03-.03,.03-.05,14.11-29.79,21.98-63.1,21.98-98.24C732.52,103.01,629.51,0,502.44,0s-230.09,103.01-230.09,230.09c0,63.65,25.83,121.27,67.63,162.91h.03c1.23,1.25,2.45,2.45,3.7,3.63-10.25-2.95-20.81-5.23-31.61-6.73-10.53-1.5-21.31-2.25-32.24-2.25-50.07,0-96.46,16.01-134.25,43.22-1.23,.88-2.43,1.78-3.63,2.68-1.23,.93-2.45,1.88-3.68,2.83-.98,.75-1.95,1.53-2.9,2.3l-.03,.03c-98.46,80.58-112.49,227.53-31.06,325.32,79.48,95.46,220.38,110.44,318.12,34.29,.93-.7,1.83-1.43,2.73-2.18,37.24-30.36,64.77-72.13,77.28-119.97,.15,.6,.33,1.2,.48,1.78,26.43,97.89,115.87,169.89,222.11,169.89,6.03,0,12.03-.23,17.93-.73,1.85-.13,3.73-.28,5.58-.48,116.04-11.78,206.58-109.77,206.58-228.88s-95.64-222.53-216.28-229.66Zm137.73,320.57c-.13,.25-72.68,128.42-199.75,63.9,0,0-110.64-58.32-52.57-163.39,0,0,47.42-90.93,138.38-43.52,0,0,37.41,18.73,37.41,55.27,0,7.63-1.63,16.03-5.58,25.21-.05,.1-11.98,22.46-38.14,22.46-7.68,0-16.58-1.93-26.78-6.93-.07-.03-29.99-16.61-22.66-46.24,.08-.25-.1-.5-.38-.5-2.9,.1-17.76,1.65-29.74,23.31-13.3,24.06-14.46,51.99,25.68,82.78,0,0,73.7,55.02,124.15-39.96,0,0,58.47-99.14-60.7-167.86,0,0-69.8-44.32-139.9-.2,0,0-2.6,1.58-7.15,4.55-18.66,12.18-35.46,26.96-50.59,43.34-.73,.8-1.5,1.58-2.28,2.4l-.25,.25-1.3,1.1c-11.35,9.73-24.93,16.58-39.61,19.33-3.75,.7-7.08,.88-9.85,1.28-2.38,.33-4.78,.58-7.18,.73-3.68,.3-7.3,.4-10.7,.38-10.93-.03-19.63-1.1-19.63-1.1,0,0,14.21,76.08-83.93,149.63,0,0-132.32,111.07-251.94-14.03,0,0-92.18-115.24,15.16-209.18,0,0,95.34-80.95,171.19,12.1,0,0,66.72,77.9-11.18,144.63,0,0-45.77,40.54-86.53-.45,0,0-27.44-32.49,9.75-66.05,0,0,26.88-21.88,51.79-3.48,0,0,7.03-15.41-10.35-36.74-17.38-21.31-42.89-32.81-86.38-7,0,0-78.53,47.87-9.2,130.07,0,0,70.2,91.21,178.39,6.25,0,0,67.12-48.27,52.32-129.77,0,0-2.8-16.88-9.23-41.72-4-15.38-5.2-31.44-2.88-47.17,1.45-9.88,4.35-20.46,9.73-29.74,0-.03,.03-.05,.05-.1,4.55-7.8,10.93-14.66,19.76-19.31-.2-.1-.85-.5-1.88-1.18-13.83-8.9-96.76-67.07-92.18-179.42,0,0-2.5-172.74,170.06-186.42,0,0,147.55,1.35,152.56,143.9,0,0,2.5,125.05-117.54,125.05,0,0-102.54,2.5-105.04-100.04,0,0-2.5-61.1,55.02-66.8,0,0,42.52-.73,45.02,49.29,0,0,0,34.66-30.01,42.34,0,0,7.5,15.18,35.01,15.18s52.52-12.5,60.02-62.52c0,0,12.5-91.11-95.04-89.31,0,0-115.04-3.23-117.54,134.32,0,0-5,82.53,67.53,122.55,0,0,5.24,2.99,14.38,7.67,17.09,8.74,35.3,15.03,54.01,19.35,16.86,3.89,41.33,13.76,55.71,38.78,.35,.63,.7,1.23,1.03,1.88,.95,1.73,1.83,3.55,2.65,5.45,0-.03,.02-.08,.05-.13-.1-.2-.2-.38-.28-.48,.45-.15,.38,.15,.28,.48,.65,1.2,1.78,3.78,2.23,4.53,2.68,4.45,2.48,6.35,2.5,12.5,0,.33-.1,4.08,.15,4.08h.03c8.38-4.7,102.96-55.42,203.03,5.38,0,0,99.96,53.39,99.96,157.43,0,24.43-5.5,51.62-19.08,81.58Z"/>
  <g>
    <g>
      <path class="cls-1" d="M14.65,1025.06c8.4,5.04,20.38,9.03,33.4,9.03,11.76,0,22.48-5.46,22.48-16.6,0-7.98-6.09-13.23-19.12-19.96-15.12-8.19-29.41-19.12-29.41-37.6,0-28.57,25-46.01,55.88-46.01,17.23,0,27.31,3.78,33.4,7.14l-9.45,25.21c-4.62-2.52-14.71-6.51-26.47-6.3-14.08,0-21.43,7.14-21.43,14.92,0,8.19,8.62,13.23,20.59,19.96,17.23,9.03,28.15,20.59,28.15,37.39,0,31.51-26.05,47.69-57.56,47.69-19.75,0-33.82-5.04-40.54-10.08l10.08-24.79Z"/>
      <path class="cls-1" d="M45.11,1063.68c-17.75,0-33.75-4.05-42.8-10.83l-2.31-1.74,12.82-31.53,3.75,2.25c9,5.4,20.47,8.5,31.47,8.5,8.64,0,18.73-3.36,18.73-12.84,0-5.76-4.47-10.11-17.09-16.62-14.68-7.95-31.44-19.75-31.44-40.94,0-29.3,24.52-49.76,59.63-49.76,14.41,0,25.93,2.49,35.22,7.61l2.84,1.57-12.11,32.29-3.79-2.07c-1.82-.99-11.37-5.85-23.76-5.85-.28,0-.56,0-.84,0-12.21,0-17.74,5.79-17.74,11.17,0,5.9,7.09,10.19,18.67,16.69,20.2,10.59,30.06,23.91,30.06,40.66,0,30.77-24.64,51.44-61.31,51.44Zm-35.91-15.26c6.78,3.99,19.06,7.76,35.91,7.76,24.82,0,53.81-11.51,53.81-43.94,0-13.89-8.31-24.72-26.14-34.07-12.17-6.83-22.6-12.69-22.6-23.28,0-8.99,7.88-18.67,25.18-18.67,9.2-.18,18.07,2.18,24.4,4.89l6.83-18.21c-7.66-3.51-17.09-5.22-28.71-5.22-30.69,0-52.13,17.38-52.13,42.25,0,17.13,13.87,26.95,27.45,34.31,12.99,6.7,21.08,12.95,21.08,23.26,0,12.17-10.54,20.35-26.23,20.35-10.82,0-22.07-2.69-31.52-7.46l-7.34,18.04Z"/>
    </g>
    <g>
      <path class="cls-1" d="M172.2,916.24l-26.89,141.59h-30.25l26.89-141.59h30.25Z"/>
      <path class="cls-1" d="M148.42,1061.58h-37.89l28.31-149.09h37.89l-28.31,149.09Zm-28.83-7.5h22.61l25.47-134.09h-22.61l-25.47,134.09Z"/>
    </g>
    <g>
      <path class="cls-1" d="M291.53,1057.83l8.61-58.4c2.31-15.34,5.46-34.87,9.45-55.25h-.63c-7.77,18.28-16.6,37.81-24.37,53.36l-28.99,57.98h-23.53l-5.04-57.35c-1.26-15.55-2.31-35.08-3.15-53.99h-.42c-3.99,18.7-8.19,39.91-11.76,55.25l-14.08,58.4h-27.73l35.5-141.59h40.55l4.41,53.78c.84,13.23,2.31,29.41,2.52,45.17h.84c5.46-15.76,13.02-32.35,19.12-45.17l26.26-53.78h40.96l-19.11,141.59h-29.41Z"/>
      <path class="cls-1" d="M324.22,1061.58h-37.04l9.25-62.7c1.39-9.25,2.79-18.03,4.21-26.42-4.47,9.85-8.78,18.95-12.69,26.76l-30.03,60.06h-29.28l-5.34-60.77c-.61-7.54-1.21-16.45-1.79-26.65-2.17,10.42-4.23,20.17-6.16,28.43l-14.77,61.3h-35.49l37.38-149.09h46.93l4.69,57.22c.22,3.43,.47,6.97,.74,10.65,.41,5.73,.85,11.87,1.19,18.15,4.62-11.34,9.61-22.09,13.42-30.11l27.31-55.92h47.6l-20.12,149.09Zm-28.35-7.5h21.79l18.1-134.09h-34.33l-25.23,51.67c-5.43,11.42-13.32,28.52-18.95,44.75l-.87,2.52h-7.21l-.05-3.7c-.15-11.64-1.02-23.7-1.78-34.33-.27-3.7-.52-7.27-.74-10.64l-4.12-50.27h-34.17l-33.62,134.09h19.97l13.38-55.53c2.32-9.97,4.87-22.23,7.56-35.2,1.4-6.72,2.8-13.49,4.18-19.95l.63-2.97h7.04l.16,3.59c.99,22.17,2.04,40.29,3.14,53.85l4.74,53.9h17.78l27.95-55.91c7.2-14.41,15.83-33.28,24.27-53.15l.97-2.28h7.67l-.88,4.47c-3.28,16.74-6.36,34.76-9.42,55.09l-7.98,54.09Z"/>
    </g>
    <g>
      <path class="cls-1" d="M371.99,918.97c9.03-2.31,23.32-3.78,36.97-3.78,12.6,0,27.31,2.1,37.6,9.45,9.45,6.51,15.34,16.39,15.34,30.04,0,17.86-8.19,31.3-19.33,39.91-11.55,9.03-27.94,13.02-45.17,13.02-5.04,0-9.24-.42-12.39-.84l-9.66,51.05h-29.62l26.26-138.86Zm17.65,63.23c3.15,.63,6.51,1.05,11.56,1.05,18.28,0,30.25-11.76,30.25-25.84s-9.87-18.07-21.64-18.07c-5.67,0-9.66,.42-12.18,1.05l-7.98,41.81Z"/>
      <path class="cls-1" d="M378.46,1061.58h-37.26l27.54-145.66,2.31-.59c9.4-2.4,23.92-3.9,37.9-3.9,11.66,0,28.04,1.76,39.79,10.15,11.04,7.61,16.91,19.06,16.91,33.09,0,17.29-7.38,32.52-20.78,42.88-11.55,9.03-27.96,13.81-47.46,13.81-3.11,0-6.2-.15-9.36-.46l-9.59,50.67Zm-28.2-7.5h21.98l9.74-51.49,3.52,.47c4.08,.54,7.97,.81,11.9,.81,17.55,0,32.77-4.34,42.86-12.23,11.54-8.93,17.89-22.05,17.89-36.96,0-11.62-4.61-20.69-13.71-26.95-10.18-7.27-24.91-8.79-35.48-8.79-12.08,0-24.97,1.21-33.74,3.12l-24.96,132.02Zm50.93-67.07c-4.68,0-8.35-.34-12.29-1.12l-3.65-.73,9.13-47.81,2.33-.58c3.08-.77,7.49-1.16,13.1-1.16,16.14,0,25.39,7.95,25.39,21.82,0,16.87-14.62,29.59-34,29.59Zm-7.15-7.88c1.88,.23,4.16,.38,7.15,.38,15.35,0,26.5-9.29,26.5-22.09,0-3.54,0-14.32-17.89-14.32-4.15,0-7.02,.23-8.98,.51l-6.78,35.52Z"/>
    </g>
    <g>
      <path class="cls-1" d="M490.05,1021.07l-16.81,36.76h-32.14l68.9-141.59h38.86l16.6,141.59h-31.72l-2.94-36.76h-40.75Zm39.49-23.11l-2.73-30.46c-.63-7.77-1.47-19.12-2.1-27.73h-.42c-3.57,8.61-7.56,19.54-11.34,27.73l-14.08,30.46h30.67Z"/>
      <path class="cls-1" d="M569.69,1061.58h-39.4l-2.94-36.76h-34.88l-16.81,36.76h-40.55l72.56-149.09h44.55l17.48,149.09Zm-32.48-7.5h24.04l-15.72-134.09h-33.18l-65.25,134.09h23.73l16.81-36.76h46.63l2.94,36.76Zm-3.56-52.37h-40.64l16.54-35.79c2.37-5.13,4.85-11.43,7.25-17.53,1.38-3.5,2.73-6.93,4.03-10.07l.96-2.32h6.41l.25,3.48c.63,8.6,1.47,19.94,2.1,27.7l3.09,34.51Zm-28.91-7.5h20.7l-2.36-26.37c-.29-3.6-.63-7.96-.97-12.46-1.91,4.81-3.85,9.58-5.75,13.7l-11.62,25.14Z"/>
    </g>
    <g>
      <path class="cls-1" d="M580.8,1057.83l26.89-141.59h35.5l18.7,53.99c5.67,18.07,9.45,32.77,12.82,48.32h.63c.63-14.5,2.52-30.04,6.51-50.84l9.66-51.47h28.15l-26.68,141.59h-31.3l-19.75-56.51c-6.3-19.12-10.08-31.93-13.87-49.37l-.63,.21c-1.68,13.65-5.04,33.82-9.24,56.09l-9.24,49.58h-28.15Z"/>
      <path class="cls-1" d="M696.09,1061.58h-37.07l-20.63-59.02c-3.94-11.95-7.01-21.77-9.77-32.18-1.74,11.09-4.04,24.24-6.75,38.57l-9.81,52.63h-35.8l28.31-149.09h41.28l19.57,56.51c3.07,9.77,5.64,18.69,7.97,27.7,1.09-9.02,2.65-18.71,4.76-29.7l10.23-54.51h35.78l-28.09,149.09Zm-31.75-7.5h25.53l25.27-134.09h-20.52l-9.09,48.41c-3.81,19.87-5.8,35.38-6.45,50.31l-.16,3.59h-7.25l-.64-2.96c-3.63-16.79-7.44-31.14-12.73-47.99l-17.79-51.36h-29.73l-25.47,134.09h20.5l8.67-46.51c4.33-22.92,7.6-42.76,9.21-55.86l.29-2.35,6.84-2.28,.89,4.09c3.86,17.81,7.82,30.96,13.76,48.99l18.84,53.93Z"/>
    </g>
    <g>
      <path class="cls-1" d="M759.78,1021.07l-16.81,36.76h-32.14l68.91-141.59h38.86l16.6,141.59h-31.72l-2.94-36.76h-40.75Zm39.49-23.11l-2.73-30.46c-.63-7.77-1.47-19.12-2.1-27.73h-.42c-3.57,8.61-7.56,19.54-11.34,27.73l-14.08,30.46h30.67Z"/>
      <path class="cls-1" d="M839.42,1061.58h-39.4l-2.94-36.76h-34.88l-16.81,36.76h-40.55l72.56-149.09h44.55l17.48,149.09Zm-32.48-7.5h24.04l-15.72-134.09h-33.18l-65.26,134.09h23.73l16.81-36.76h46.63l2.94,36.76Zm-3.56-52.37h-40.64l16.54-35.79c2.36-5.12,4.84-11.41,7.24-17.49,1.38-3.51,2.74-6.96,4.05-10.1l.96-2.31h6.41l.25,3.48c.63,8.6,1.47,19.94,2.1,27.7l3.09,34.51Zm-28.91-7.5h20.7l-2.36-26.37c-.29-3.61-.63-7.97-.97-12.46-1.91,4.81-3.85,9.58-5.75,13.7l-11.62,25.14Z"/>
    </g>
    <g>
      <path class="cls-1" d="M850.54,1057.83l26.89-141.59h35.5l18.7,53.99c5.67,18.07,9.45,32.77,12.81,48.32h.63c.63-14.5,2.52-30.04,6.51-50.84l9.66-51.47h28.15l-26.68,141.59h-31.3l-19.75-56.51c-6.3-19.12-10.08-31.93-13.87-49.37l-.63,.21c-1.68,13.65-5.04,33.82-9.24,56.09l-9.24,49.58h-28.15Z"/>
      <path class="cls-1" d="M965.83,1061.58h-37.07l-20.63-59.02c-3.94-11.95-7.02-21.78-9.77-32.18-1.74,11.09-4.04,24.24-6.75,38.58l-9.81,52.63h-35.8l28.31-149.09h41.28l19.57,56.51c3.03,9.64,5.62,18.65,7.96,27.71,1.09-9.02,2.65-18.72,4.77-29.71l10.24-54.51h35.78l-28.09,149.09Zm-31.75-7.5h25.53l25.27-134.09h-20.52l-9.09,48.41c-3.81,19.87-5.81,35.38-6.45,50.31l-.16,3.59h-7.25l-.64-2.96c-3.63-16.77-7.43-31.12-12.73-47.99l-17.79-51.36h-29.72l-25.47,134.09h20.5l8.67-46.51c4.32-22.92,7.59-42.76,9.21-55.86l.29-2.35,6.84-2.28,.89,4.09c3.86,17.78,7.81,30.94,13.76,48.99l18.85,53.93Z"/>
    </g>
  </g>
</svg>