<svg id="Layer_1" data-name="Layer 1" xmlns="http://www.w3.org/2000/svg" viewBox="0 0 28.88 26.65"><defs><style>.cls-1{fill:#fff;}</style></defs><path class="cls-1" d="M28.53,12.39h-.34a7.41,7.41,0,0,0-2.05.29l-.23.12h0l.12-.12,0,0h0l0,0h0l.07-.07,0,0,0,0a7.89,7.89,0,0,0,1.36-1.93h0a7.11,7.11,0,0,0,.7-3.09,7.36,7.36,0,0,0-14.71,0,7.15,7.15,0,0,0,2.16,5.12h0l.12.12a6.45,6.45,0,0,0-1-.21,6.94,6.94,0,0,0-1-.07,7.44,7.44,0,0,0-4.29,1.35l-.11.09-.12.09L9.25,14h0a7.18,7.18,0,0,0-1,10.23,7.44,7.44,0,0,0,10.17,1.07l.09-.06A7.24,7.24,0,0,0,21,21.44s0,0,0,.06a7.33,7.33,0,0,0,7.1,5.34l.57,0,.18,0a7.27,7.27,0,0,0,6.6-7.19,7.35,7.35,0,0,0-6.91-7.22Zm4.4,10.08s-2.32,4-6.38,2c0,0-3.54-1.83-1.68-5.13A3.23,3.23,0,0,1,29.29,18a2.17,2.17,0,0,1,1.19,1.74,2,2,0,0,1-.17.79,1.48,1.48,0,0,1-1.22.71,2,2,0,0,1-.86-.22,1.38,1.38,0,0,1-.72-1.46h0c-.1,0-.57.05-1,.73s-.46,1.64.83,2.6c0,0,2.35,1.73,4-1.25,0,0,1.87-3.12-1.94-5.28a4.47,4.47,0,0,0-4.47,0l-.23.15a8.73,8.73,0,0,0-1.61,1.36L23,17.9h0l-.05,0a2.8,2.8,0,0,1-1.26.61l-.32,0-.22,0H20.8c-.35,0-.62,0-.62,0s.45,2.39-2.69,4.7c0,0-4.22,3.49-8-.44,0,0-2.94-3.62.49-6.58,0,0,3-2.54,5.47.38A3.13,3.13,0,0,1,15,21.2a2,2,0,0,1-2.76,0,1.5,1.5,0,0,1,2-2.19s.23-.48-.33-1.15-1.37-1-2.76-.22c0,0-2.51,1.5-.29,4.08,0,0,2.24,2.87,5.7.2a4.31,4.31,0,0,0,1.67-4.08s-.09-.53-.3-1.31A3.89,3.89,0,0,1,17.84,15a2.74,2.74,0,0,1,.31-.94h0a1.57,1.57,0,0,1,.64-.61l-.06,0a6.46,6.46,0,0,1-3-5.64S15.7,2.39,21.21,2c0,0,4.72,0,4.88,4.52,0,0,.08,3.93-3.76,3.93,0,0-3.27.08-3.35-3.14a2,2,0,0,1,1.76-2.1,1.45,1.45,0,0,1,1.43,1.55,1.39,1.39,0,0,1-1,1.33s.23.47,1.11.47,1.68-.39,1.92-2c0,0,.4-2.87-3-2.81,0,0-3.67-.1-3.75,4.22a4.29,4.29,0,0,0,2.16,3.85s.16.1.46.25a7.31,7.31,0,0,0,1.72.6,2.75,2.75,0,0,1,1.78,1.22l0,.06.08.17h0v0s0,0,0,0l.07.14a.55.55,0,0,1,.08.39.53.53,0,0,0,0,.13h0a6.71,6.71,0,0,1,6.49.17s3.19,1.68,3.19,4.95a6.13,6.13,0,0,1-.61,2.56Z" transform="translate(-6.56 -0.19)"/></svg>